<svg data-v-6eea5bd6="" width="16" height="16" viewBox="0 0 28 28" fill="none" xmlns="http://www.w3.org/2000/svg" class="mr-2"><rect x="1" y="1" width="26" height="26" rx="13" stroke="currentColor" stroke-width="2"/> <path d="M14 26C13.921 26 13.6555 25.9452 13.2517 25.3901C12.8638 24.8569 12.4728 24.0211 12.1274 22.8983C11.4402 20.6649 11 17.5187 11 14C11 10.4813 11.4402 7.33509 12.1274 5.1017C12.4728 3.97889 12.8638 3.14306 13.2517 2.60988C13.6555 2.0548 13.921 2 14 2C14.079 2 14.3445 2.0548 14.7483 2.60988C15.1362 3.14306 15.5272 3.97889 15.8726 5.1017C16.5598 7.33509 17 10.4813 17 14C17 17.5187 16.5598 20.6649 15.8726 22.8983C15.5272 24.0211 15.1362 24.8569 14.7483 25.3901C14.3445 25.9452 14.079 26 14 26Z" stroke="currentColor" stroke-width="2"/> <path d="M14 26C13.921 26 13.6555 25.9452 13.2517 25.3901C12.8638 24.8569 12.4728 24.0211 12.1274 22.8983C11.4402 20.6649 11 17.5187 11 14C11 10.4813 11.4402 7.33509 12.1274 5.1017C12.4728 3.97889 12.8638 3.14306 13.2517 2.60988C13.6555 2.0548 13.921 2 14 2C14.079 2 14.3445 2.0548 14.7483 2.60988C15.1362 3.14306 15.5272 3.97889 15.8726 5.1017C16.5598 7.33509 17 10.4813 17 14C17 17.5187 16.5598 20.6649 15.8726 22.8983C15.5272 24.0211 15.1362 24.8569 14.7483 25.3901C14.3445 25.9452 14.079 26 14 26Z" stroke="currentColor" stroke-width="2"/> <path d="M14 26C13.921 26 13.6555 25.9452 13.2517 25.3901C12.8638 24.8569 12.4728 24.0211 12.1274 22.8983C11.4402 20.6649 11 17.5187 11 14C11 10.4813 11.4402 7.33509 12.1274 5.1017C12.4728 3.97889 12.8638 3.14306 13.2517 2.60988C13.6555 2.0548 13.921 2 14 2C14.079 2 14.3445 2.0548 14.7483 2.60988C15.1362 3.14306 15.5272 3.97889 15.8726 5.1017C16.5598 7.33509 17 10.4813 17 14C17 17.5187 16.5598 20.6649 15.8726 22.8983C15.5272 24.0211 15.1362 24.8569 14.7483 25.3901C14.3445 25.9452 14.079 26 14 26Z" stroke="currentColor" stroke-width="2"/> <line x1="2" y1="11" x2="26" y2="11" stroke="currentColor" stroke-width="2"/> <line x1="2" y1="18" x2="26" y2="18" stroke="currentColor" stroke-width="2"/></svg>